HIERARCHY
ROOT Hips
{
	OFFSET -0.001795 -0.223333 0.028219
	CHANNELS 6 Xposition Yposition Zposition Zrotation Yrotation Xrotation 
	JOINT LeftUpLeg
	{
		OFFSET 0.069520 -0.091406 -0.006815
		CHANNELS 3 Zrotation Yrotation Xrotation
		JOINT LeftLeg
		{
			OFFSET 0.034277 -0.375199 -0.004496
			CHANNELS 3 Zrotation Yrotation Xrotation
			JOINT LeftFoot
			{
				OFFSET -0.013596 -0.397961 -0.043693
				CHANNELS 3 Zrotation Yrotation Xrotation
				JOINT LeftToe
				{
					OFFSET 0.026358 -0.055791 0.119288
					CHANNELS 3 Zrotation Yrotation Xrotation
					End Site
					{
						OFFSET 0.000000 0.000000 0.000000
					}
				}
			}
		}
	}
	JOINT RightUpLeg
	{
		OFFSET -0.067670 -0.090522 -0.004320
		CHANNELS 3 Zrotation Yrotation Xrotation
		JOINT RightLeg
		{
			OFFSET -0.038290 -0.382569 -0.008850
			CHANNELS 3 Zrotation Yrotation Xrotation
			JOINT RightFoot
			{
				OFFSET 0.015774 -0.398415 -0.042312
				CHANNELS 3 Zrotation Yrotation Xrotation
				JOINT RightToe
				{
					OFFSET -0.025372 -0.048144 0.123348
					CHANNELS 3 Zrotation Yrotation Xrotation
					End Site
					{
						OFFSET 0.000000 0.000000 0.000000
					}
				}
			}
		}
	}
	JOINT Spine
	{
		OFFSET -0.002533 0.108963 -0.026696
		CHANNELS 3 Zrotation Yrotation Xrotation
		JOINT Spine1
		{
			OFFSET 0.005487 0.135180 0.001092
			CHANNELS 3 Zrotation Yrotation Xrotation
			JOINT Spine2
			{
				OFFSET 0.001457 0.052922 0.025425
				CHANNELS 3 Zrotation Yrotation Xrotation
				JOINT Neck
				{
					OFFSET -0.002778 0.213870 -0.042857
					CHANNELS 3 Zrotation Yrotation Xrotation
					JOINT Head
					{
						OFFSET 0.005152 0.064970 0.051349
						CHANNELS 3 Zrotation Yrotation Xrotation
						End Site
						{
							OFFSET 0.000000 0.000000 0.000000
						}
					}
				}
				JOINT LeftShoulder
				{
					OFFSET 0.078845 0.121749 -0.034090
					CHANNELS 3 Zrotation Yrotation Xrotation
					JOINT LeftArm
					{
						OFFSET 0.090977 0.030469 -0.008868
						CHANNELS 3 Zrotation Yrotation Xrotation
						JOINT LeftForeArm
						{
							OFFSET 0.259612 -0.012772 -0.027456
							CHANNELS 3 Zrotation Yrotation Xrotation
							JOINT LeftHand
							{
								OFFSET 0.249234 0.008986 -0.001171
								CHANNELS 3 Zrotation Yrotation Xrotation
								End Site
								{
									OFFSET 0.000000 0.000000 0.000000
								}
							}
						}
					}
				}
				JOINT RightShoulder
				{
					OFFSET -0.081759 0.118833 -0.038615
					CHANNELS 3 Zrotation Yrotation Xrotation
					JOINT RightArm
					{
						OFFSET -0.096012 0.032551 -0.009143
						CHANNELS 3 Zrotation Yrotation Xrotation
						JOINT RightForeArm
						{
							OFFSET -0.253742 -0.013329 -0.021401
							CHANNELS 3 Zrotation Yrotation Xrotation
							JOINT RightHand
							{
								OFFSET -0.255298 0.007772 -0.005559
								CHANNELS 3 Zrotation Yrotation Xrotation
								End Site
								{
									OFFSET 0.000000 0.000000 0.000000
								}
							}
						}
					}
				}
			}
		}
	}
}
MOTION
Frames: 10
Frame Time: 0.050000
0.000000 0.972790 0.000000 -0.722343 -0.188211 5.801113 1.216902 -0.063347 -0.402031 -3.384716 0.397030 -7.304431 3.676137 10.960366 14.221828 0.000000 0.000000 0.000000 -1.294118 0.264811 -2.434500 1.489144 -0.238355 -3.190303 -2.043367 -9.403427 14.252467 0.000000 0.000000 0.000000 0.825309 -0.100449 1.609998 1.634506 0.274741 -25.435119 -1.223512 1.511576 28.731079 2.395067 0.740496 -30.016862 0.000000 0.000000 0.000000 -24.834226 -1.505450 -0.999463 -52.085215 -3.534308 -6.982792 -9.431770 -24.460793 3.254433 0.000000 0.000000 0.000000 21.441124 2.204921 0.519944 58.358395 2.752713 -6.997597 4.602294 21.301159 1.789175 0.000000 0.000000 0.000000 
0.000600 0.971155 0.001733 -1.062701 -0.993702 6.516549 1.518291 -0.113988 -0.958226 -3.498758 0.409317 -7.159769 4.797982 12.357722 12.699971 0.000000 0.000000 0.000000 -1.251317 0.398717 -3.908640 1.500416 -0.204546 -1.984219 -2.541802 -10.103710 12.835744 0.000000 0.000000 0.000000 0.615508 -0.061710 0.934794 1.803614 0.238925 -25.769384 -0.829491 2.026124 28.736588 2.308870 0.777056 -29.849036 0.000000 0.000000 0.000000 -24.921257 -0.499546 -1.623598 -52.474545 -3.508992 -7.036611 -9.854278 -25.527078 3.525191 0.000000 0.000000 0.000000 21.393805 2.099433 0.448865 58.912113 1.880324 -7.459304 4.831832 23.025934 2.020067 0.000000 0.000000 0.000000 
0.001542 0.970226 0.003551 -0.952384 -0.642318 7.042742 1.574055 -0.153974 -1.429812 -3.938632 0.425033 -6.334161 4.786456 12.398160 12.877716 0.000000 0.000000 0.000000 -1.494019 0.406002 -3.958203 1.542351 -0.229850 -2.794571 -2.228477 -9.617033 13.437404 0.000000 0.000000 0.000000 0.570262 -0.040321 0.491110 1.182972 0.396341 -26.202501 -0.779228 1.223140 29.267065 1.179976 1.330478 -30.840114 0.000000 0.000000 0.000000 -24.435117 -0.499587 -1.355551 -52.124724 -4.009497 -6.884664 -10.467018 -25.390098 3.674924 0.000000 0.000000 0.000000 20.828702 2.654166 0.635605 59.802052 1.519713 -7.742827 4.619516 23.784244 2.047772 0.000000 0.000000 0.000000 
0.003003 0.970778 0.005278 -1.240781 -0.685676 7.663563 1.328633 -0.184436 -1.842372 -3.468670 0.398792 -6.201379 4.847271 12.457186 12.681596 0.000000 0.000000 0.000000 -1.554358 0.435141 -4.259746 2.272761 -0.290260 -3.029762 -2.445917 -10.194002 14.249716 0.000000 0.000000 0.000000 0.365628 -0.009239 -0.053846 1.800752 0.293757 -26.955476 -0.985763 1.321231 29.610755 1.567057 1.175527 -31.389959 0.000000 0.000000 0.000000 -25.100417 -0.028617 -1.731149 -51.544414 -3.727719 -6.932052 -10.832191 -25.427365 3.761056 0.000000 0.000000 0.000000 21.184744 2.940559 0.830712 59.285784 1.258537 -7.849177 5.181239 24.000783 2.184174 0.000000 0.000000 0.000000 
0.005300 0.971374 0.006920 -1.600612 -0.542680 7.684146 1.347340 -0.182752 -1.817317 -3.155050 0.377410 -5.768614 4.775969 12.297968 12.274457 0.000000 0.000000 0.000000 -1.634873 0.412755 -3.989818 2.504596 -0.318954 -3.634641 -2.485556 -10.360745 14.819808 0.000000 0.000000 0.000000 0.257280 -0.016704 0.188409 2.144572 0.214457 -26.749438 -0.896691 1.350269 29.310835 1.538690 1.241817 -31.851343 0.000000 0.000000 0.000000 -25.495023 -0.276684 -1.674967 -51.078382 -4.016286 -6.717622 -11.145729 -25.512430 3.829421 0.000000 0.000000 0.000000 20.858727 3.176914 1.007170 59.213658 1.368676 -7.759513 5.735109 24.357986 2.332651 0.000000 0.000000 0.000000 
0.008835 0.971948 0.008321 -1.768481 -0.340279 7.660463 1.197220 -0.197263 -2.024039 -2.893527 0.353795 -5.000142 4.644771 12.049349 11.886602 0.000000 0.000000 0.000000 -1.634595 0.446451 -4.380686 2.376808 -0.290187 -2.498281 -2.442952 -10.190168 14.489425 0.000000 0.000000 0.000000 -0.141212 -0.013551 0.442018 2.640181 0.132847 -27.163406 -1.105823 1.253502 29.593628 2.029725 1.022702 -32.251901 0.000000 0.000000 0.000000 -25.559093 -0.101620 -1.801719 -50.930489 -4.166211 -6.661199 -11.289912 -25.439888 3.849085 0.000000 0.000000 0.000000 20.703039 3.722706 1.350042 58.922038 1.552910 -7.673449 5.763258 24.999173 2.412793 0.000000 0.000000 0.000000 
0.013660 0.971960 0.009817 -1.936034 -0.051735 7.759044 1.145937 -0.220050 -2.310046 -2.840749 0.344561 -4.612841 4.367252 11.652082 11.986167 0.000000 0.000000 0.000000 -1.689708 0.516083 -5.181910 2.298707 -0.252172 -0.800602 -2.546159 -10.167036 13.687524 0.000000 0.000000 0.000000 -0.309508 -0.024124 0.864680 2.777357 0.107323 -27.175857 -1.094597 0.805855 29.735392 1.871222 1.085044 -32.672212 0.000000 0.000000 0.000000 -25.837310 0.196091 -1.923197 -51.036964 -4.655078 -6.511383 -10.875624 -25.108512 3.719446 0.000000 0.000000 0.000000 19.985832 3.785790 1.323846 58.785586 2.067591 -7.407245 6.590134 25.331363 2.609600 0.000000 0.000000 0.000000 
0.019748 0.972109 0.011836 -2.117328 0.330072 7.469272 0.963329 -0.222252 -2.368675 -2.615347 0.315410 -3.522320 3.920787 10.754279 10.798452 0.000000 0.000000 0.000000 -1.633873 0.630331 -6.517480 2.551329 -0.219834 2.682551 -2.938308 -10.487192 11.954137 0.000000 0.000000 0.000000 -0.623965 -0.028170 1.301173 3.101516 -0.000071 -26.344280 -1.030404 0.660500 29.564800 2.411608 0.799918 -32.247150 0.000000 0.000000 0.000000 -26.599949 0.135063 -2.020095 -50.869952 -4.891529 -6.369148 -9.633633 -25.071269 3.427023 0.000000 0.000000 0.000000 20.110489 4.265416 1.620829 58.065459 2.680375 -7.034580 6.056913 26.016455 2.574649 0.000000 0.000000 0.000000 
0.026299 0.971524 0.015106 -2.025921 0.676742 7.015695 0.757155 -0.193779 -2.059952 -3.167036 0.351141 -2.946909 3.998094 10.773250 10.100055 0.000000 0.000000 0.000000 -2.485208 0.814584 -9.119133 3.786887 -0.352251 9.119006 -3.326658 -10.957680 10.780415 0.000000 0.000000 0.000000 -1.018178 -0.045902 2.305562 3.748463 -0.139903 -26.247691 -1.529380 0.701426 29.844730 3.086179 0.488630 -32.196837 0.000000 0.000000 0.000000 -27.130870 0.121785 -2.152317 -50.602483 -5.062703 -6.289885 -8.762027 -24.407745 3.129810 0.000000 0.000000 0.000000 20.594079 4.452781 1.813905 57.017906 3.552873 -6.590939 5.189737 26.596158 2.462340 0.000000 0.000000 0.000000 
0.032353 0.971390 0.020040 -2.523795 1.758941 6.062255 1.107271 -0.125443 -1.173879 -3.577000 0.373819 -2.182769 3.810287 10.446283 9.622987 0.000000 0.000000 0.000000 -2.699116 0.971098 -11.520439 4.979434 -0.689110 16.741648 -3.621821 -11.280812 10.014888 0.000000 0.000000 0.000000 -0.860253 -0.087799 3.174463 3.487548 -0.145215 -24.966589 -1.073019 -0.469639 29.955246 2.756994 0.605117 -32.625465 0.000000 0.000000 0.000000 -28.177165 -1.095530 -1.276694 -50.008311 -5.747805 -6.016203 -6.743649 -23.198122 2.553120 0.000000 0.000000 0.000000 20.213662 4.788467 1.868660 56.463312 4.336784 -6.162350 4.654303 26.423690 2.292093 0.000000 0.000000 0.000000 
